HIERARCHY
ROOT SpineBase
{
  OFFSET 0.000000 0.000000 0.000000
  CHANNELS 6 Xposition Yposition Zposition Zrotation Xrotation Yrotation
  JOINT SpineMid
  {
    OFFSET 0.000000 32.396231 0.000000
    CHANNELS 3 Zrotation Xrotation Yrotation
    JOINT SpineShoulder
    {
      OFFSET -0.012628 24.031096 -0.756079
      CHANNELS 3 Zrotation Xrotation Yrotation
      JOINT Neck
      {
        OFFSET -0.015038 7.926181 -0.571866
        CHANNELS 3 Zrotation Xrotation Yrotation
        JOINT Head
        {
          OFFSET 6.938776 11.405923 2.802713
          CHANNELS 3 Zrotation Xrotation Yrotation
          End Site
          {
            OFFSET 0 0 0
          }
        }
      }
      JOINT ShoulderLeft
      {
        OFFSET -7.432377 -5.304673 -13.972312
        CHANNELS 3 Zrotation Xrotation Yrotation
        JOINT ElbowLeft
        {
          OFFSET -0.117353 -25.690357 -5.277412
          CHANNELS 3 Zrotation Xrotation Yrotation
          JOINT WristLeft
          {
            OFFSET 8.737022 -23.768745 3.431393
            CHANNELS 3 Zrotation Xrotation Yrotation
            JOINT HandLeft
            {
              OFFSET 1.581031 -2.632166 2.600019
              CHANNELS 3 Zrotation Xrotation Yrotation
              JOINT HandTipLeft
              {
                OFFSET 4.199386 -4.674794 -1.512636
                CHANNELS 3 Zrotation Xrotation Yrotation
                End Site
                {
                  OFFSET 0 0 0
                }
              }
              JOINT ThumbLeft
              {
                OFFSET 2.026996 4.342669 3.307701
                CHANNELS 3 Zrotation Xrotation Yrotation
                End Site
                {
                  OFFSET 0 0 0
                }
              }
            }
          }
        }
      }
      JOINT ShoulderRight
      {
        OFFSET 10.008252 -2.957621 13.342937
        CHANNELS 3 Zrotation Xrotation Yrotation
        JOINT ElbowRight
        {
          OFFSET -6.693151 -12.531529 -23.332560
          CHANNELS 3 Zrotation Xrotation Yrotation
          JOINT WristRight
          {
            OFFSET 1.763192 -2.421510 -19.934812
            CHANNELS 3 Zrotation Xrotation Yrotation
            JOINT HandRight
            {
              OFFSET 0.640631 -0.830579 -6.237044
              CHANNELS 3 Zrotation Xrotation Yrotation
              JOINT HandTipRight
              {
                OFFSET -0.324924 -2.760940 -0.844208
                CHANNELS 3 Zrotation Xrotation Yrotation
                End Site
                {
                  OFFSET 0 0 0
                }
              }
              JOINT ThumbRight
              {
                OFFSET 1.206610 -1.247692 -1.864286
                CHANNELS 3 Zrotation Xrotation Yrotation
                End Site
                {
                  OFFSET 0 0 0
                }
              }
            }
          }
        }
      }
    }
  }
  JOINT HipLeft
  {
    OFFSET -4.944161 1.228494 -7.865587
    CHANNELS 3 Zrotation Xrotation Yrotation
    JOINT KneeLeft
    {
      OFFSET -4.171074 -31.610697 -0.363579
      CHANNELS 3 Zrotation Xrotation Yrotation
      JOINT AnkleLeft
      {
        OFFSET -5.558224 -34.980921 6.825078
        CHANNELS 3 Zrotation Xrotation Yrotation
        JOINT FootLeft
        {
          OFFSET 8.607905 -4.087141 -9.005451
          CHANNELS 3 Zrotation Xrotation Yrotation
          End Site
          {
            OFFSET 0 0 0
          }
        }
      }
    }
  }
  JOINT HipRight
  {
    OFFSET 4.040628 0.088109 0.559879
    CHANNELS 3 Zrotation Xrotation Yrotation
    JOINT KneeRight
    {
      OFFSET 0.037692 -31.969745 11.077242
      CHANNELS 3 Zrotation Xrotation Yrotation
      JOINT AnkleRight
      {
        OFFSET -15.748458 -37.551606 -9.891632
        CHANNELS 3 Zrotation Xrotation Yrotation
        JOINT FootRight
        {
          OFFSET 8.579173 -4.061647 -8.993432
          CHANNELS 3 Zrotation Xrotation Yrotation
          End Site
          {
            OFFSET 0 0 0
          }
        }
      }
    }
  }
}
MOTION
Frames: 6
Frame Time: 0.033333
35.977858 75.926650 319.503606 -0.000000 0.000000 -43.159947 0.000000 0.000000 43.159947 -0.000000 0.000000 0.000000 -0.000000 0.000000 0.000000 0.000000 0.000000 0.000000 -0.000000 0.000000 0.000000 -0.000000 0.000000 0.000000 -0.000000 0.000000 0.000000 -0.000000 0.000000 0.000000 0.000000 0.000000 0.000000 0.000000 0.000000 0.000000 -0.000000 0.000000 0.000000 -0.000000 0.000000 0.000000 -0.000000 0.000000 0.000000 -0.000000 0.000000 0.000000 0.000000 0.000000 0.000000 0.000000 0.000000 0.000000 0.000000 0.000000 43.159947 -0.000000 0.000000 0.000000 -0.000000 0.000000 0.000000 0.000000 0.000000 0.000000 0.000000 0.000000 43.159947 -0.000000 0.000000 0.000000 -0.000000 0.000000 0.000000 0.000000 0.000000 0.000000
35.866913 75.920418 319.492594 -0.354091 0.113837 -42.960032 0.336713 0.157999 42.959919 -0.000000 0.000000 0.000000 -0.000000 0.000000 0.000000 0.000000 0.000000 0.000000 -0.000000 0.000000 0.000000 -0.000000 0.000000 0.000000 -3.680604 4.347532 -0.937755 -4.268849 -9.097326 -1.484658 0.000000 0.000000 0.000000 0.000000 0.000000 0.000000 -0.000000 0.000000 0.000000 -0.000000 0.000000 0.000000 -0.000000 0.000000 0.000000 -0.000000 0.000000 0.000000 0.000000 0.000000 0.000000 0.000000 0.000000 0.000000 0.336713 0.157999 42.959919 -0.000000 0.000000 0.000000 -0.000000 0.000000 0.000000 0.000000 0.000000 0.000000 1.318364 -0.050032 43.157339 -0.573835 0.823195 -0.194222 -0.000000 0.000000 0.000000 0.000000 0.000000 0.000000
35.769061 75.922101 319.482087 -0.667890 0.220629 -42.696454 0.640482 0.290755 42.696115 -0.000000 0.000000 0.000000 -0.000000 0.000000 0.000000 0.000000 0.000000 0.000000 -0.000000 0.000000 0.000000 -0.000000 0.000000 0.000000 -6.003336 7.180263 -1.367692 -8.793434 -15.726954 -4.205193 0.000000 0.000000 0.000000 0.000000 0.000000 0.000000 -0.000000 0.000000 0.000000 -0.000000 0.000000 0.000000 -0.000000 0.000000 0.000000 1.073967 0.058971 -0.336205 0.000000 0.000000 0.000000 0.000000 0.000000 0.000000 1.276148 -0.272844 42.806594 -0.083389 0.845435 -0.109964 -0.000000 0.000000 0.000000 0.000000 0.000000 0.000000 2.529095 -0.130326 43.071841 -1.092339 1.597264 -0.363144 -0.000000 0.000000 0.000000 0.000000 0.000000 0.000000
35.684299 75.931697 319.472085 -0.941912 0.320513 -42.369375 -0.020688 -0.064107 42.340233 -0.070658 0.020408 -0.045368 1.106723 0.617750 -0.490487 0.000000 0.000000 0.000000 0.259908 -0.698986 0.241172 0.100715 1.073289 -0.014435 -6.729623 8.370477 -1.787378 -12.468322 -20.150497 -7.019381 0.000000 0.000000 0.000000 0.000000 0.000000 0.000000 1.071458 -0.306101 0.079572 -0.000000 0.000000 0.000000 -0.000000 0.000000 0.000000 1.482060 0.084612 -0.464845 0.000000 0.000000 0.000000 0.000000 0.000000 0.000000 1.810481 -0.388893 42.523896 -0.001065 2.121644 -0.281514 -0.124782 -0.935004 0.122988 0.000000 0.000000 0.000000 3.630727 -0.243781 42.905011 -1.555473 2.320696 -0.508320 -0.000000 0.000000 0.000000 0.000000 0.000000 0.000000
35.612629 75.949208 319.462589 -1.176595 0.413620 -41.979225 -0.009409 -0.069206 41.944303 -0.076324 0.020170 -0.055039 1.411612 0.794146 -0.645398 0.000000 0.000000 0.000000 0.278811 -0.891280 0.300298 0.120410 1.407822 -0.001450 -7.395645 9.317875 -1.933487 -14.499288 -22.737494 -9.077276 0.000000 0.000000 0.000000 0.000000 0.000000 0.000000 1.306826 -0.386550 0.097939 -0.000000 0.000000 0.000000 -0.000000 0.000000 0.000000 1.797103 0.108241 -0.564853 0.000000 0.000000 0.000000 0.000000 0.000000 0.000000 2.276645 -0.492836 42.171418 -0.001038 2.643052 -0.348252 -0.173151 -1.167990 0.149710 0.000000 0.000000 0.000000 4.621802 -0.392486 42.658521 -2.173631 3.954930 -0.962108 0.226267 -0.958981 0.345527 0.000000 0.000000 0.000000
35.554050 75.974632 319.453598 -1.372302 0.500067 -41.526707 0.010967 -0.066673 41.487778 -0.072986 0.016341 -0.062025 1.684871 0.955918 -0.796725 0.000000 0.000000 0.000000 0.264578 -1.063292 0.349147 0.134017 1.729683 0.019843 -7.620985 9.732492 -1.989799 -14.390079 -23.792728 -9.868154 0.000000 0.000000 0.000000 0.000000 0.000000 0.000000 1.482119 -0.456530 0.111943 -0.000000 0.000000 0.000000 -0.000000 0.000000 0.000000 2.015111 0.130165 -0.634916 0.000000 0.000000 0.000000 0.000000 0.000000 0.000000 2.675362 -0.585134 41.750101 -0.001640 3.071190 -0.401246 -0.224910 -1.360162 0.169134 0.000000 0.000000 0.000000 5.500834 -0.577705 42.334105 -2.647989 4.888869 -1.149382 0.357297 -1.270919 0.444746 0.000000 0.000000 0.000000
